<svg width="336" height="75" viewBox="0 0 336 75" fill="none" xmlns="http://www.w3.org/2000/svg">
<g filter="url(#filter0_d_7019_56842)">
<g clip-path="url(#clip0_7019_56842)">
<path d="M4 18C4 9.16344 11.1634 2 20 2H316C324.837 2 332 9.16344 332 18V53C332 61.8366 324.837 69 316 69H20C11.1634 69 4 61.8366 4 53V18Z" fill="#2196F3"/>
<g opacity="0.4">
<path d="M52 69C52 75.6275 46.6274 81 40 81H16C9.37255 81 3.99996 75.6275 3.99996 69V45C3.99996 38.3726 9.37255 33 16 33H40C46.6274 33 52 38.3726 52 45V69Z" fill="white" fill-opacity="0.4"/>
<path d="M94.5996 39C94.5996 45.6275 89.227 51 82.5996 51H46.5996C39.9722 51 34.5996 45.6275 34.5996 39V3.00001C34.5996 -3.62741 39.9722 -9 46.5996 -9H82.5996C89.227 -9 94.5996 -3.62741 94.5996 3V39Z" fill="white" fill-opacity="0.1"/>
</g>
</g>
</g>
<defs>
<filter id="filter0_d_7019_56842" x="0" y="0" width="336" height="75" filterUnits="userSpaceOnUse" color-interpolation-filters="sRGB">
<feFlood flood-opacity="0" result="BackgroundImageFix"/>
<feColorMatrix in="SourceAlpha" type="matrix" values="0 0 0 0 0 0 0 0 0 0 0 0 0 0 0 0 0 0 127 0" result="hardAlpha"/>
<feOffset dy="2"/>
<feGaussianBlur stdDeviation="2"/>
<feComposite in2="hardAlpha" operator="out"/>
<feColorMatrix type="matrix" values="0 0 0 0 0.380392 0 0 0 0 0.380392 0 0 0 0 0.380392 0 0 0 0.1 0"/>
<feBlend mode="normal" in2="BackgroundImageFix" result="effect1_dropShadow_7019_56842"/>
<feBlend mode="normal" in="SourceGraphic" in2="effect1_dropShadow_7019_56842" result="shape"/>
</filter>
<clipPath id="clip0_7019_56842">
<path d="M4 18C4 9.16344 11.1634 2 20 2H316C324.837 2 332 9.16344 332 18V53C332 61.8366 324.837 69 316 69H20C11.1634 69 4 61.8366 4 53V18Z" fill="white"/>
</clipPath>
</defs>
</svg>
