<svg width="36" height="36" viewBox="0 0 36 36" fill="none" xmlns="http://www.w3.org/2000/svg">
<path opacity="0.4" d="M29.9531 15V27C29.9531 31.5 28.4531 33 23.9531 33H11.9531C7.45312 33 5.95312 31.5 5.95312 27V15H29.9531Z" fill="#D72685"/>
<path d="M32.25 10.5V12C32.25 13.65 31.455 15 29.25 15H6.75C4.455 15 3.75 13.65 3.75 12V10.5C3.75 8.85 4.455 7.5 6.75 7.5H29.25C31.455 7.5 32.25 8.85 32.25 10.5Z" fill="#D72685"/>
<path opacity="0.4" d="M17.4602 7.50003H9.18017C8.67017 6.94503 8.68517 6.09003 9.22517 5.55003L11.3552 3.42003C11.9102 2.86503 12.8252 2.86503 13.3802 3.42003L17.4602 7.50003Z" fill="#D72685"/>
<path opacity="0.4" d="M26.8034 7.50003H18.5234L22.6034 3.42003C23.1584 2.86503 24.0734 2.86503 24.6284 3.42003L26.7584 5.55003C27.2984 6.09003 27.3134 6.94503 26.8034 7.50003Z" fill="#D72685"/>
<path opacity="0.6" d="M13.4102 15V22.71C13.4102 23.91 14.7302 24.615 15.7352 23.97L17.1452 23.04C17.6552 22.71 18.3002 22.71 18.7952 23.04L20.1302 23.94C21.1202 24.6 22.4552 23.895 22.4552 22.695V15H13.4102Z" fill="#D72685"/>
</svg>
