<?xml version="1.0" encoding="UTF-8"?>
<svg id="Layer_1" data-name="Layer 1" xmlns="http://www.w3.org/2000/svg" viewBox="0 0 1920 1080">
  <defs>
    <style>
      .cls-1, .cls-2 {
        stroke-miterlimit: 10;
      }

      .cls-1, .cls-2, .cls-3, .cls-4, .cls-5, .cls-6 {
        stroke: #fff;
        stroke-width: 1.5px;
      }

      .cls-1, .cls-2, .cls-4, .cls-6 {
        fill: none;
      }

      .cls-1, .cls-5, .cls-6 {
        stroke-linecap: round;
      }

      .cls-3, .cls-4, .cls-5, .cls-6 {
        stroke-linejoin: round;
      }

      .cls-3, .cls-5 {
        fill: #fff;
      }
    </style>
  </defs>
  <g>
    <g>
      <path class="cls-2" d="m146.17,109.52l43.76,50.69-29.62,25.57-12.38-14.33c-2.53-2.93-3.96-6.58-3.95-10.1h0l-1.05-51.03c-.04-1.72,2-2.22,3.23-.8Z"/>
      <path class="cls-2" d="m218.76,209.73h44.43c4.58,0,8.29,3.72,8.29,8.29v43.47c0,15.06-12.23,27.29-27.29,27.29h-6.43c-15.06,0-27.29-12.23-27.29-27.29v-43.47c0-4.58,3.72-8.29,8.29-8.29Z" transform="translate(-104.31 218.07) rotate(-40.81)"/>
      <path class="cls-2" d="m218.76,209.73h44.43c4.58,0,8.29,3.72,8.29,8.29v43.47c0,15.06-12.23,27.29-27.29,27.29h-6.43c-15.06,0-27.29-12.23-27.29-27.29v-43.47c0-4.58,3.72-8.29,8.29-8.29Z" transform="translate(-104.31 218.07) rotate(-40.81)"/>
      <path class="cls-2" d="m173.67,165.93h43.22c2.48,0,4.49,2.01,4.49,4.49v56.3h-52.2v-56.3c0-2.48,2.01-4.49,4.49-4.49Z" transform="translate(-80.83 175.34) rotate(-40.81)"/>
      <line class="cls-2" x1="199.64" y1="247.9" x2="245.01" y2="208.73"/>
    </g>
    <path class="cls-1" d="m243.25,222.31c-.84-.98,27.8,32.2,27.8,32.2"/>
  </g>
  <g>
    <g>
      <path class="cls-2" d="m1108.44,782.25l43.76,50.69-29.62,25.57-12.38-14.33c-2.53-2.93-3.96-6.58-3.95-10.1h0l-1.05-51.03c-.04-1.72,2-2.22,3.23-.8Z"/>
      <path class="cls-2" d="m1181.03,882.46h44.43c4.58,0,8.29,3.72,8.29,8.29v43.47c0,15.06-12.23,27.29-27.29,27.29h-6.43c-15.06,0-27.29-12.23-27.29-27.29v-43.47c0-4.58,3.72-8.29,8.29-8.29Z" transform="translate(-310.04 1010.45) rotate(-40.81)"/>
      <path class="cls-2" d="m1181.03,882.46h44.43c4.58,0,8.29,3.72,8.29,8.29v43.47c0,15.06-12.23,27.29-27.29,27.29h-6.43c-15.06,0-27.29-12.23-27.29-27.29v-43.47c0-4.58,3.72-8.29,8.29-8.29Z" transform="translate(-310.04 1010.45) rotate(-40.81)"/>
      <path class="cls-2" d="m1135.93,838.66h43.22c2.48,0,4.49,2.01,4.49,4.49v56.3h-52.2v-56.3c0-2.48,2.01-4.49,4.49-4.49Z" transform="translate(-286.56 967.72) rotate(-40.81)"/>
      <line class="cls-2" x1="1161.91" y1="920.64" x2="1207.28" y2="881.47"/>
    </g>
    <path class="cls-1" d="m1205.52,895.05c-.84-.98,27.8,32.2,27.8,32.2"/>
  </g>
  <g>
    <g>
      <path class="cls-2" d="m1222.19,112.31l-43.76,50.69,29.62,25.57,12.38-14.33c2.53-2.93,3.96-6.58,3.95-10.1h0l1.05-51.03c.04-1.72-2-2.22-3.23-.8Z"/>
      <path class="cls-2" d="m1124.18,212.52h6.43c15.06,0,27.29,12.23,27.29,27.29v43.47c0,4.58-3.72,8.29-8.29,8.29h-44.43c-4.58,0-8.29-3.72-8.29-8.29v-43.47c0-15.06,12.23-27.29,27.29-27.29Z" transform="translate(1816.01 1179.59) rotate(-139.19)"/>
      <path class="cls-2" d="m1124.18,212.52h6.43c15.06,0,27.29,12.23,27.29,27.29v43.47c0,4.58-3.72,8.29-8.29,8.29h-44.43c-4.58,0-8.29-3.72-8.29-8.29v-43.47c0-15.06,12.23-27.29,27.29-27.29Z" transform="translate(1816.01 1179.59) rotate(-139.19)"/>
      <path class="cls-2" d="m1146.99,168.72h52.2v56.3c0,2.48-2.01,4.49-4.49,4.49h-43.22c-2.48,0-4.49-2.01-4.49-4.49v-56.3h0Z" transform="translate(1930.89 1116.46) rotate(-139.19)"/>
      <line class="cls-2" x1="1168.72" y1="250.69" x2="1123.35" y2="211.52"/>
    </g>
    <path class="cls-1" d="m1125.11,225.1c.84-.98-27.8,32.2-27.8,32.2"/>
  </g>
  <g>
    <polyline class="cls-1" points="281.96 899.65 281.57 899.21 250.87 864.77 250.48 864.32"/>
    <line class="cls-1" x1="258.4" y1="872.32" x2="268.34" y2="852.36"/>
    <line class="cls-1" x1="274.92" y1="890.87" x2="293.14" y2="880.18"/>
    <line class="cls-1" x1="266.66" y1="881.59" x2="290.36" y2="860.47"/>
    <path class="cls-1" d="m261.56,843.45c-6.4,5.7-10.31,13.08-11.61,20.68l31.98,35.88-.05.05c7.72-.4,15.54-3.44,21.97-9.17,14.16-12.62,16.17-33.47,4.5-46.57-11.67-13.1-32.62-13.49-46.77-.87Z"/>
    <path class="cls-1" d="m249.76,863.91l-52.19,46.51c-9.97,8.89-10.85,24.17-1.96,34.14,8.89,9.97,24.17,10.85,34.14,1.96l52.19-46.51-32.17-36.1Z"/>
    <rect class="cls-1" x="236.88" y="879.73" width="48.12" height="13.67" transform="translate(-227.27 1671.24) rotate(-131.71)"/>
  </g>
  <g>
    <polyline class="cls-1" points="1740.99 546.21 1740.6 545.76 1709.9 511.32 1709.51 510.88"/>
    <line class="cls-1" x1="1717.42" y1="518.88" x2="1727.37" y2="498.92"/>
    <line class="cls-1" x1="1733.95" y1="537.42" x2="1752.17" y2="526.74"/>
    <line class="cls-1" x1="1725.69" y1="528.15" x2="1749.38" y2="507.03"/>
    <path class="cls-1" d="m1720.59,490.01c-6.4,5.7-10.31,13.08-11.61,20.68l31.98,35.88-.05.05c7.72-.4,15.54-3.44,21.97-9.17,14.16-12.62,16.17-33.47,4.5-46.57-11.67-13.1-32.62-13.49-46.77-.87Z"/>
    <path class="cls-1" d="m1708.79,510.47l-52.19,46.51c-9.97,8.89-10.85,24.17-1.96,34.14,8.89,9.97,24.17,10.85,34.14,1.96l52.19-46.51-32.17-36.1Z"/>
    <rect class="cls-1" x="1695.91" y="526.28" width="48.12" height="13.67" transform="translate(2466.39 2171.83) rotate(-131.71)"/>
  </g>
  <g>
    <polyline class="cls-1" points="961.39 539.68 961.78 539.23 992.48 504.79 992.87 504.35"/>
    <line class="cls-1" x1="984.96" y1="512.35" x2="975.01" y2="492.39"/>
    <line class="cls-1" x1="968.43" y1="530.89" x2="950.21" y2="520.21"/>
    <line class="cls-1" x1="976.69" y1="521.62" x2="952.99" y2="500.5"/>
    <path class="cls-1" d="m981.79,483.48c6.4,5.7,10.31,13.08,11.61,20.68l-31.98,35.88.05.05c-7.72-.4-15.54-3.44-21.97-9.17-14.16-12.62-16.17-33.47-4.5-46.57,11.67-13.1,32.62-13.49,46.77-.87Z"/>
    <path class="cls-1" d="m993.59,503.93l52.19,46.51c9.97,8.89,10.85,24.17,1.96,34.14-8.89,9.97-24.17,10.85-34.14,1.96l-52.19-46.51,32.17-36.1Z"/>
    <rect class="cls-1" x="958.34" y="519.75" width="48.12" height="13.67" transform="translate(-64.35 909.61) rotate(-48.29)"/>
  </g>
  <g>
    <line class="cls-1" x1="1715.73" y1="132.2" x2="1723.44" y2="148.62"/>
    <line class="cls-1" x1="1710.34" y1="137.01" x2="1716.46" y2="150.05"/>
    <path class="cls-6" d="m1678.31,222.15c24.94,5.25,53.13-14.92,64.91-47.55,12.59-34.87,1.66-70.77-24.41-80.18-26.07-9.41-57.41,11.23-70,46.1-11.78,32.63-2.97,66.15,19.57,78.04m12.8-4.35c-1.73-.31-3.44-.77-5.12-1.37-1.68-.61-3.29-1.35-4.82-2.21-18.62-10.53-25.58-39.35-15.39-67.56,11.02-30.53,37.94-48.78,60.12-40.77,22.18,8.01,31.23,39.25,20.21,69.77-10.18,28.21-33.95,45.94-55,42.15Z"/>
    <path class="cls-4" d="m1736.18,172.06c-10.18,28.21-33.95,45.94-55,42.15-1.73-.31-3.44-.77-5.12-1.37-1.68-.61-3.29-1.35-4.82-2.21-18.62-10.53-25.58-39.35-15.39-67.56,11.02-30.53,37.94-48.78,60.12-40.77,22.18,8.01,31.23,39.25,20.21,69.77Z"/>
    <path class="cls-4" d="m1678.31,222.15l-27.03,74.87c-.99,2.74-4.02,4.17-6.76,3.17-2.74-.99-4.17-4.02-3.18-6.76l27.03-74.87"/>
  </g>
  <g>
    <line class="cls-1" x1="701.31" y1="136.97" x2="709.02" y2="153.38"/>
    <line class="cls-1" x1="695.92" y1="141.77" x2="702.04" y2="154.81"/>
    <path class="cls-6" d="m663.89,226.91c24.94,5.25,53.13-14.92,64.91-47.55,12.59-34.87,1.66-70.77-24.41-80.18-26.07-9.41-57.41,11.23-70,46.1-11.78,32.63-2.97,66.15,19.57,78.04m12.8-4.35c-1.73-.31-3.44-.77-5.12-1.37-1.68-.61-3.29-1.35-4.82-2.21-18.62-10.53-25.58-39.35-15.39-67.56,11.02-30.53,37.94-48.78,60.12-40.77,22.18,8.01,31.23,39.25,20.21,69.77-10.18,28.21-33.95,45.94-55,42.15Z"/>
    <path class="cls-4" d="m721.76,176.82c-10.18,28.21-33.95,45.94-55,42.15-1.73-.31-3.44-.77-5.12-1.37-1.68-.61-3.29-1.35-4.82-2.21-18.62-10.53-25.58-39.35-15.39-67.56,11.02-30.53,37.94-48.78,60.12-40.77,22.18,8.01,31.23,39.25,20.21,69.77Z"/>
    <path class="cls-4" d="m663.89,226.91l-27.03,74.87c-.99,2.74-4.02,4.17-6.76,3.17-2.74-.99-4.17-4.02-3.18-6.76l27.03-74.87"/>
  </g>
  <g>
    <g>
      <path class="cls-4" d="m1610.77,953.95l96.53-43.06c5.44-2.43,7.89-8.81,5.46-14.26l-27.03-60.58-116.25,51.86,27.03,60.58c2.43,5.44,8.81,7.89,14.26,5.46Z"/>
      <rect class="cls-4" x="1569.66" y="846.36" width="109.21" height="16.18" transform="translate(3455.72 973.06) rotate(155.96)"/>
      <rect class="cls-2" x="1605.49" y="882.35" width="76.11" height="28.87" rx="12.15" ry="12.15" transform="translate(3509.85 1046.19) rotate(155.96)"/>
      <path class="cls-4" d="m1663.05,828.13s-9.26-13.27-43.99,1.9c-34.73,15.17-42.22,8.62-42.22,8.62,0,0-10.53,17.79,7.28,24.21l78.93-34.73Z"/>
    </g>
    <rect class="cls-2" x="1569.71" y="851.6" width="109.06" height="5.25" transform="translate(-207.11 735.82) rotate(-24.04)"/>
  </g>
  <g>
    <g>
      <path class="cls-4" d="m168.82,619.96l96.53-43.06c5.44-2.43,7.89-8.81,5.46-14.26l-27.03-60.58-116.25,51.86,27.03,60.58c2.43,5.44,8.81,7.89,14.26,5.46Z"/>
      <rect class="cls-4" x="127.7" y="512.38" width="109.21" height="16.18" transform="translate(560.83 921.52) rotate(155.96)"/>
      <rect class="cls-2" x="163.53" y="548.36" width="76.11" height="28.87" rx="12.15" ry="12.15" transform="translate(614.97 994.65) rotate(155.96)"/>
      <path class="cls-4" d="m221.09,494.15s-9.26-13.27-43.99,1.9c-34.73,15.17-42.22,8.62-42.22,8.62,0,0-10.53,17.79,7.28,24.21l78.93-34.73Z"/>
    </g>
    <rect class="cls-2" x="127.75" y="517.61" width="109.06" height="5.25" transform="translate(-196.13 119.39) rotate(-24.04)"/>
  </g>
  <g>
    <g>
      <path class="cls-4" d="m661.46,951.92l96.53-43.06c5.44-2.43,7.89-8.81,5.46-14.26l-27.03-60.58-116.25,51.86,27.03,60.58c2.43,5.44,8.81,7.89,14.26,5.46Z"/>
      <rect class="cls-4" x="620.34" y="844.34" width="109.21" height="16.18" transform="translate(1638.61 1355.94) rotate(155.96)"/>
      <rect class="cls-2" x="656.17" y="880.32" width="76.11" height="28.87" rx="12.15" ry="12.15" transform="translate(1692.74 1429.07) rotate(155.96)"/>
      <path class="cls-4" d="m713.73,826.11s-9.26-13.27-43.99,1.9c-34.73,15.17-42.22,8.62-42.22,8.62,0,0-10.53,17.79,7.28,24.21l78.93-34.73Z"/>
    </g>
    <rect class="cls-2" x="620.39" y="849.58" width="109.06" height="5.25" transform="translate(-288.64 348.89) rotate(-24.04)"/>
  </g>
  <g>
    <path class="cls-6" d="m604.53,523.74l-28.68,13.05-27.06-59.47c-1.28-2.8-.04-6.11,2.76-7.38l18.53-8.43c2.8-1.28,6.11-.04,7.38,2.76l27.06,59.47Z"/>
    <path class="cls-6" d="m671,613.21l-71.37,32.48-28.35-72.82c-10.72-23.55,9.23-38.51,18.78-42.86h0c9.55-4.35,33.94-9.56,44.65,13.99l36.28,69.21Z"/>
    <line class="cls-5" x1="571.51" y1="566.79" x2="629.99" y2="540.18"/>
    <line class="cls-3" x1="590.1" y1="530.09" x2="600.75" y2="553.48"/>
  </g>
  <g>
    <path class="cls-6" d="m1366.96,479.22l-28.68,13.05-27.06-59.47c-1.28-2.8-.04-6.11,2.76-7.38l18.53-8.43c2.8-1.28,6.11-.04,7.38,2.76l27.06,59.47Z"/>
    <path class="cls-6" d="m1433.44,568.69l-71.37,32.48-28.35-72.82c-10.72-23.55,9.23-38.51,18.78-42.86h0c9.55-4.35,33.94-9.56,44.65,13.99l36.28,69.21Z"/>
    <line class="cls-5" x1="1333.94" y1="522.27" x2="1392.43" y2="495.66"/>
    <line class="cls-3" x1="1352.54" y1="485.57" x2="1363.19" y2="508.96"/>
  </g>
</svg>