<svg width="124" height="44" viewBox="0 0 124 44" fill="none" xmlns="http://www.w3.org/2000/svg">
<g id="Logo">
<path id="Vector" d="M113.698 36.455H98.0554C93.0954 36.455 89.1528 32.5175 89.1528 27.5636V11.94C89.1528 6.98612 93.0954 3.04846 98.0554 3.04846H113.698C118.658 3.04846 122.601 6.98612 122.601 11.94V27.5636C122.601 32.3903 118.531 36.455 113.698 36.455Z" fill="#D72685"/>
<path id="Vector_2" d="M113.444 18.1642C116.605 18.1642 119.167 15.605 119.167 12.4481C119.167 9.29129 116.605 6.73218 113.444 6.73218C110.283 6.73218 107.721 9.29129 107.721 12.4481C107.721 15.605 110.283 18.1642 113.444 18.1642Z" fill="#E3EEC6"/>
<path id="Vector_3" d="M113.444 32.5175C116.605 32.5175 119.167 29.9584 119.167 26.8016C119.167 23.6446 116.605 21.0855 113.444 21.0855C110.283 21.0855 107.721 23.6446 107.721 26.8016C107.721 29.9584 110.283 32.5175 113.444 32.5175Z" fill="#C7E9F4"/>
<path id="Vector_4" d="M98.5641 18.1642C101.725 18.1642 104.287 15.605 104.287 12.4481C104.287 9.29129 101.725 6.73218 98.5641 6.73218C95.4034 6.73218 92.841 9.29129 92.841 12.4481C92.841 15.605 95.4034 18.1642 98.5641 18.1642Z" fill="#FDD7CA"/>
<path id="Vector_5" d="M98.5641 32.5175C101.725 32.5175 104.287 29.9584 104.287 26.8016C104.287 23.6446 101.725 21.0855 98.5641 21.0855C95.4034 21.0855 92.841 23.6446 92.841 26.8016C92.841 29.9584 95.4034 32.5175 98.5641 32.5175Z" fill="#FFF9B8"/>
<path id="Vector_6" d="M78.5968 18.9262C80.5636 18.9262 82.158 17.3338 82.158 15.3696C82.158 13.4053 80.5636 11.813 78.5968 11.813C76.6302 11.813 75.0358 13.4053 75.0358 15.3696C75.0358 17.3338 76.6302 18.9262 78.5968 18.9262Z" fill="#D72685"/>
<path id="Vector_7" d="M78.5968 10.1617C80.5636 10.1617 82.158 8.56932 82.158 6.60506C82.158 4.64081 80.5636 3.04846 78.5968 3.04846C76.6302 3.04846 75.0358 4.64081 75.0358 6.60506C75.0358 8.56932 76.6302 10.1617 78.5968 10.1617Z" fill="#D72685"/>
<path id="Vector_8" d="M69.6943 10.1617C71.661 10.1617 73.2555 8.56932 73.2555 6.60506C73.2555 4.64081 71.661 3.04846 69.6943 3.04846C67.7277 3.04846 66.1333 4.64081 66.1333 6.60506C66.1333 8.56932 67.7277 10.1617 69.6943 10.1617Z" fill="#D72685"/>
<path id="Vector_9" d="M4.96001 18.9262C6.92672 18.9262 8.52104 17.3338 8.52104 15.3696C8.52104 13.4053 6.92672 11.813 4.96001 11.813C2.99331 11.813 1.39899 13.4053 1.39899 15.3696C1.39899 17.3338 2.99331 18.9262 4.96001 18.9262Z" fill="#D72685"/>
<path id="Vector_10" d="M15.5159 36.455H15.3887C13.4811 36.455 11.9549 34.9307 11.9549 33.0255V6.47804C11.9549 4.57272 13.4811 3.04846 15.3887 3.04846H15.5159C17.4236 3.04846 18.9497 4.57272 18.9497 6.47804V33.0255C18.9497 34.9307 17.4236 36.455 15.5159 36.455Z" fill="#D72685"/>
<path id="Vector_11" d="M5.0872 41.6629H4.83283C2.92514 41.6629 1.39899 40.1386 1.39899 38.2334V25.7852C1.39899 23.88 2.92514 22.3558 4.83283 22.3558H5.0872C6.99489 22.3558 8.52104 23.88 8.52104 25.7852V38.2334C8.52104 40.1386 6.8677 41.6629 5.0872 41.6629Z" fill="#D72685"/>
<path id="Vector_12" d="M45.4031 23.245C45.4031 16.8938 40.3158 11.813 33.9568 11.813C27.598 11.813 22.5107 16.8938 22.5107 23.245C22.5107 29.596 27.598 34.6768 33.9568 34.6768C35.4831 34.6768 37.0093 34.2957 38.4081 33.7876V38.2334C38.4081 40.1388 39.9343 41.79 41.9693 41.79C44.0041 41.79 45.5303 40.2658 45.5303 38.2334V24.134C45.5303 24.007 45.5303 23.88 45.5303 23.7531C45.2758 23.6259 45.4031 23.372 45.4031 23.245ZM33.9568 27.6906C31.5406 27.6906 29.5055 25.7852 29.5055 23.245C29.5055 20.8315 31.4133 18.7992 33.9568 18.7992C36.5006 18.7992 38.4081 20.7045 38.4081 23.245C38.281 25.6583 36.3733 27.6906 33.9568 27.6906Z" fill="#D72685"/>
<path id="Vector_13" d="M78.5969 29.3419H60.919H60.5374C58.2482 29.3419 56.3406 27.4367 56.2133 25.2772V23.7529V6.4781C56.2133 4.57278 54.6872 2.92151 52.6523 2.92151C50.7446 2.92151 49.0913 4.57278 49.0913 6.4781V25.2772C49.0913 25.4043 49.0913 25.5313 49.0913 25.6583C49.0913 25.7853 49.0913 26.4205 49.0913 26.5475C49.7272 32.0094 54.8143 36.4551 59.9016 36.4551H59.6472H60.0287C60.1559 36.4551 60.7919 36.4551 60.919 36.4551H78.5969C80.5046 36.4551 82.158 34.8038 82.158 32.8985C82.0307 30.9933 80.5046 29.3419 78.5969 29.3419Z" fill="#D72685"/>
</g>
</svg>
