<svg width="107" height="39" viewBox="0 0 107 39" fill="none" xmlns="http://www.w3.org/2000/svg">
<rect width="107" height="39" fill="#282828"/>
<g clip-path="url(#clip0_823_6139)">
<rect width="1440" height="4563.6" transform="translate(-1265 -4150.4)" fill="#FAFAFA"/>
<path d="M98.1108 31.7272H84.6123C80.3323 31.7272 76.9303 28.3225 76.9303 24.0393V10.5306C76.9303 6.2474 80.3323 2.84277 84.6123 2.84277H98.1108C102.391 2.84277 105.793 6.2474 105.793 10.5306V24.0393C105.793 28.2127 102.281 31.7272 98.1108 31.7272Z" fill="#D72685"/>
<path d="M97.8913 15.9122C100.619 15.9122 102.83 13.6995 102.83 10.97C102.83 8.24053 100.619 6.02783 97.8913 6.02783C95.1639 6.02783 92.9529 8.24053 92.9529 10.97C92.9529 13.6995 95.1639 15.9122 97.8913 15.9122Z" fill="#E3EEC6"/>
<path d="M97.8913 28.3224C100.619 28.3224 102.83 26.1097 102.83 23.3802C102.83 20.6507 100.619 18.438 97.8913 18.438C95.1639 18.438 92.9529 20.6507 92.9529 23.3802C92.9529 26.1097 95.1639 28.3224 97.8913 28.3224Z" fill="#C7E9F4"/>
<path d="M85.0514 15.9122C87.7788 15.9122 89.9898 13.6995 89.9898 10.97C89.9898 8.24053 87.7788 6.02783 85.0514 6.02783C82.3239 6.02783 80.1129 8.24053 80.1129 10.97C80.1129 13.6995 82.3239 15.9122 85.0514 15.9122Z" fill="#FDD7CA"/>
<path d="M85.0514 28.3224C87.7788 28.3224 89.9898 26.1097 89.9898 23.3802C89.9898 20.6507 87.7788 18.438 85.0514 18.438C82.3239 18.438 80.1129 20.6507 80.1129 23.3802C80.1129 26.1097 82.3239 28.3224 85.0514 28.3224Z" fill="#FFF9B8"/>
<path d="M67.8216 16.5712C69.5187 16.5712 70.8944 15.1944 70.8944 13.496C70.8944 11.7977 69.5187 10.4209 67.8216 10.4209C66.1245 10.4209 64.7488 11.7977 64.7488 13.496C64.7488 15.1944 66.1245 16.5712 67.8216 16.5712Z" fill="#D72685"/>
<path d="M67.8216 8.99306C69.5187 8.99306 70.8944 7.61627 70.8944 5.91792C70.8944 4.21956 69.5187 2.84277 67.8216 2.84277C66.1245 2.84277 64.7488 4.21956 64.7488 5.91792C64.7488 7.61627 66.1245 8.99306 67.8216 8.99306Z" fill="#D72685"/>
<path d="M60.1395 8.99306C61.8365 8.99306 63.2123 7.61627 63.2123 5.91792C63.2123 4.21956 61.8365 2.84277 60.1395 2.84277C58.4424 2.84277 57.0667 4.21956 57.0667 5.91792C57.0667 7.61627 58.4424 8.99306 60.1395 8.99306Z" fill="#D72685"/>
<path d="M4.27997 16.5712C5.97705 16.5712 7.35279 15.1944 7.35279 13.496C7.35279 11.7977 5.97705 10.4209 4.27997 10.4209C2.5829 10.4209 1.20715 11.7977 1.20715 13.496C1.20715 15.1944 2.5829 16.5712 4.27997 16.5712Z" fill="#D72685"/>
<path d="M13.3887 31.7272H13.279C11.6328 31.7272 10.3159 30.4092 10.3159 28.7618V5.80809C10.3159 4.16069 11.6328 2.84277 13.279 2.84277H13.3887C15.0349 2.84277 16.3518 4.16069 16.3518 5.80809V28.7618C16.3518 30.4092 15.0349 31.7272 13.3887 31.7272Z" fill="#D72685"/>
<path d="M4.38972 36.2303H4.17023C2.52408 36.2303 1.20715 34.9123 1.20715 33.2649V22.5019C1.20715 20.8545 2.52408 19.5366 4.17023 19.5366H4.38972C6.03587 19.5366 7.35279 20.8545 7.35279 22.5019V33.2649C7.35279 34.9123 5.92613 36.2303 4.38972 36.2303Z" fill="#D72685"/>
<path d="M39.1784 20.3053C39.1784 14.814 34.7887 10.4209 29.3015 10.4209C23.8143 10.4209 19.4246 14.814 19.4246 20.3053C19.4246 25.7966 23.8143 30.1897 29.3015 30.1897C30.6184 30.1897 31.9353 29.8602 33.1425 29.4209V33.2648C33.1425 34.9122 34.4594 36.34 36.2153 36.34C37.9712 36.34 39.2881 35.0221 39.2881 33.2648V21.0741C39.2881 20.9643 39.2881 20.8544 39.2881 20.7446C39.0687 20.6348 39.1784 20.4151 39.1784 20.3053ZM29.3015 24.1492C27.2164 24.1492 25.4605 22.5018 25.4605 20.3053C25.4605 18.2186 27.1066 16.4614 29.3015 16.4614C31.4964 16.4614 33.1425 18.1088 33.1425 20.3053C33.0328 22.392 31.3866 24.1492 29.3015 24.1492Z" fill="#D72685"/>
<path d="M67.8216 25.5768H52.5672H52.238C50.2626 25.5768 48.6165 23.9294 48.5067 22.0624V20.7445V5.80805C48.5067 4.16066 47.1898 2.73291 45.4339 2.73291C43.7878 2.73291 42.3611 4.16066 42.3611 5.80805V22.0624C42.3611 22.1722 42.3611 22.282 42.3611 22.3919C42.3611 22.5017 42.3611 23.0508 42.3611 23.1607C42.9098 27.8832 47.2995 31.7271 51.6893 31.7271H51.4698H51.799C51.9088 31.7271 52.4575 31.7271 52.5672 31.7271H67.8216C69.4678 31.7271 70.8944 30.2994 70.8944 28.652C70.7847 27.0046 69.4678 25.5768 67.8216 25.5768Z" fill="#D72685"/>
</g>
<defs>
<clipPath id="clip0_823_6139">
<rect width="1440" height="4563.6" fill="white" transform="translate(-1265 -4150.4)"/>
</clipPath>
</defs>
</svg>
