<svg width="107" height="38" viewBox="0 0 107 38" fill="none" xmlns="http://www.w3.org/2000/svg">
<rect width="107" height="38" fill="#C9C9C9"/>
<g clip-path="url(#clip0_280_2827)">
<rect width="1400" height="5170" transform="translate(-1245 -4760)" fill="white"/>
<path d="M98.1108 31.5201H84.6123C80.3323 31.5201 76.9302 28.1155 76.9302 23.8323V10.3236C76.9302 6.04037 80.3323 2.63574 84.6123 2.63574H98.1108C102.391 2.63574 105.793 6.04037 105.793 10.3236V23.8323C105.793 28.0057 102.281 31.5201 98.1108 31.5201Z" fill="#D72685"/>
<path d="M97.8913 15.7052C100.619 15.7052 102.83 13.4925 102.83 10.763C102.83 8.0335 100.619 5.8208 97.8913 5.8208C95.1638 5.8208 92.9528 8.0335 92.9528 10.763C92.9528 13.4925 95.1638 15.7052 97.8913 15.7052Z" fill="#E3EEC6"/>
<path d="M97.8913 28.1156C100.619 28.1156 102.83 25.9029 102.83 23.1734C102.83 20.4439 100.619 18.2312 97.8913 18.2312C95.1638 18.2312 92.9528 20.4439 92.9528 23.1734C92.9528 25.9029 95.1638 28.1156 97.8913 28.1156Z" fill="#C7E9F4"/>
<path d="M85.0513 15.7052C87.7787 15.7052 89.9897 13.4925 89.9897 10.763C89.9897 8.0335 87.7787 5.8208 85.0513 5.8208C82.3238 5.8208 80.1128 8.0335 80.1128 10.763C80.1128 13.4925 82.3238 15.7052 85.0513 15.7052Z" fill="#FDD7CA"/>
<path d="M85.0513 28.1156C87.7787 28.1156 89.9897 25.9029 89.9897 23.1734C89.9897 20.4439 87.7787 18.2312 85.0513 18.2312C82.3238 18.2312 80.1128 20.4439 80.1128 23.1734C80.1128 25.9029 82.3238 28.1156 85.0513 28.1156Z" fill="#FFF9B8"/>
<path d="M67.8215 16.3642C69.5186 16.3642 70.8944 14.9874 70.8944 13.289C70.8944 11.5907 69.5186 10.2139 67.8215 10.2139C66.1245 10.2139 64.7487 11.5907 64.7487 13.289C64.7487 14.9874 66.1245 16.3642 67.8215 16.3642Z" fill="#D72685"/>
<path d="M67.8215 8.78603C69.5186 8.78603 70.8944 7.40924 70.8944 5.71089C70.8944 4.01253 69.5186 2.63574 67.8215 2.63574C66.1245 2.63574 64.7487 4.01253 64.7487 5.71089C64.7487 7.40924 66.1245 8.78603 67.8215 8.78603Z" fill="#D72685"/>
<path d="M60.1395 8.78603C61.8365 8.78603 63.2123 7.40924 63.2123 5.71089C63.2123 4.01253 61.8365 2.63574 60.1395 2.63574C58.4424 2.63574 57.0667 4.01253 57.0667 5.71089C57.0667 7.40924 58.4424 8.78603 60.1395 8.78603Z" fill="#D72685"/>
<path d="M4.27997 16.3642C5.97705 16.3642 7.35279 14.9874 7.35279 13.289C7.35279 11.5907 5.97705 10.2139 4.27997 10.2139C2.5829 10.2139 1.20715 11.5907 1.20715 13.289C1.20715 14.9874 2.5829 16.3642 4.27997 16.3642Z" fill="#D72685"/>
<path d="M13.3887 31.5201H13.279C11.6328 31.5201 10.3159 30.2022 10.3159 28.5548V5.60106C10.3159 3.95366 11.6328 2.63574 13.279 2.63574H13.3887C15.0349 2.63574 16.3518 3.95366 16.3518 5.60106V28.5548C16.3518 30.2022 15.0349 31.5201 13.3887 31.5201Z" fill="#D72685"/>
<path d="M4.38972 36.0232H4.17023C2.52408 36.0232 1.20715 34.7053 1.20715 33.0579V22.2949C1.20715 20.6475 2.52408 19.3296 4.17023 19.3296H4.38972C6.03587 19.3296 7.35279 20.6475 7.35279 22.2949V33.0579C7.35279 34.7053 5.92613 36.0232 4.38972 36.0232Z" fill="#D72685"/>
<path d="M39.1785 20.0983C39.1785 14.6069 34.7887 10.2139 29.3015 10.2139C23.8144 10.2139 19.4246 14.6069 19.4246 20.0983C19.4246 25.5896 23.8144 29.9827 29.3015 29.9827C30.6185 29.9827 31.9354 29.6532 33.1426 29.2139V33.0578C33.1426 34.7052 34.4595 36.1329 36.2154 36.1329C37.9713 36.1329 39.2882 34.815 39.2882 33.0578V20.867C39.2882 20.7572 39.2882 20.6474 39.2882 20.5376C39.0687 20.4277 39.1785 20.2081 39.1785 20.0983ZM29.3015 23.9422C27.2164 23.9422 25.4605 22.2948 25.4605 20.0983C25.4605 18.0116 27.1067 16.2543 29.3015 16.2543C31.4964 16.2543 33.1426 17.9017 33.1426 20.0983C33.0328 22.185 31.3867 23.9422 29.3015 23.9422Z" fill="#D72685"/>
<path d="M67.8215 25.3701H52.5672H52.2379C50.2626 25.3701 48.6164 23.7227 48.5067 21.8556V20.5377V5.60127C48.5067 3.95387 47.1897 2.52612 45.4338 2.52612C43.7877 2.52612 42.361 3.95387 42.361 5.60127V21.8556C42.361 21.9654 42.361 22.0753 42.361 22.1851C42.361 22.2949 42.361 22.844 42.361 22.9539C42.9097 27.6764 47.2995 31.5203 51.6892 31.5203H51.4697H51.799C51.9087 31.5203 52.4574 31.5203 52.5672 31.5203H67.8215C69.4677 31.5203 70.8944 30.0926 70.8944 28.4452C70.7846 26.7978 69.4677 25.3701 67.8215 25.3701Z" fill="#D72685"/>
</g>
<defs>
<clipPath id="clip0_280_2827">
<rect width="1400" height="5170" fill="white" transform="translate(-1245 -4760)"/>
</clipPath>
</defs>
</svg>
