<svg width="54" height="26" viewBox="0 0 54 26" fill="none" xmlns="http://www.w3.org/2000/svg">
<path d="M51.6194 10.7059C52.9344 10.7059 54.0005 9.64077 54.0005 8.32684C54.0005 7.01291 52.9344 5.94775 51.6194 5.94775C50.3043 5.94775 49.2383 7.01291 49.2383 8.32684C49.2383 9.64077 50.3043 10.7059 51.6194 10.7059Z" fill="#D72685"/>
<path d="M51.6194 4.84312C52.9344 4.84312 54.0005 3.77797 54.0005 2.46404C54.0005 1.15011 52.9344 0.0849609 51.6194 0.0849609C50.3043 0.0849609 49.2383 1.15011 49.2383 2.46404C49.2383 3.77797 50.3043 4.84312 51.6194 4.84312Z" fill="#D72685"/>
<path d="M45.6663 4.84312C46.9813 4.84312 48.0474 3.77797 48.0474 2.46404C48.0474 1.15011 46.9813 0.0849609 45.6663 0.0849609C44.3512 0.0849609 43.2852 1.15011 43.2852 2.46404C43.2852 3.77797 44.3512 4.84312 45.6663 4.84312Z" fill="#D72685"/>
<path d="M2.3811 10.7059C3.69614 10.7059 4.7622 9.64077 4.7622 8.32684C4.7622 7.01291 3.69614 5.94775 2.3811 5.94775C1.06605 5.94775 0 7.01291 0 8.32684C0 9.64077 1.06605 10.7059 2.3811 10.7059Z" fill="#D72685"/>
<path d="M9.43969 22.4313H9.35465C8.07906 22.4313 7.05859 21.4117 7.05859 20.1372V2.37907C7.05859 1.10457 8.07906 0.0849609 9.35465 0.0849609H9.43969C10.7153 0.0849609 11.7358 1.10457 11.7358 2.37907V20.1372C11.7358 21.4117 10.7153 22.4313 9.43969 22.4313Z" fill="#D72685"/>
<path d="M2.46614 25.9151H2.29606C1.02047 25.9151 0 24.8955 0 23.621V15.2942C0 14.0197 1.02047 13.0001 2.29606 13.0001H2.46614C3.74173 13.0001 4.7622 14.0197 4.7622 15.2942V23.621C4.7622 24.8955 3.65669 25.9151 2.46614 25.9151Z" fill="#D72685"/>
<path d="M29.4203 13.5948C29.4203 9.34644 26.0188 5.94775 21.7668 5.94775C17.5148 5.94775 14.1133 9.34644 14.1133 13.5948C14.1133 17.8432 17.5148 21.2418 21.7668 21.2418C22.7873 21.2418 23.8078 20.9869 24.7432 20.6471V23.6209C24.7432 24.8954 25.7637 26 27.1243 26C28.4849 26 29.5054 24.9804 29.5054 23.6209V14.1896C29.5054 14.1046 29.5054 14.0196 29.5054 13.9347C29.3353 13.8497 29.4203 13.6798 29.4203 13.5948ZM21.7668 16.5687C20.1511 16.5687 18.7904 15.2941 18.7904 13.5948C18.7904 11.9804 20.066 10.6209 21.7668 10.6209C23.4676 10.6209 24.7432 11.8955 24.7432 13.5948C24.6581 15.2092 23.3826 16.5687 21.7668 16.5687Z" fill="#D72685"/>
<path d="M51.6197 17.6732H39.7993H39.5442C38.0134 17.6732 36.7379 16.3987 36.6528 14.9542V13.9346V2.37908C36.6528 1.10457 35.6324 0 34.2717 0C32.9961 0 31.8906 1.10457 31.8906 2.37908V14.9542C31.8906 15.0392 31.8906 15.1242 31.8906 15.2091C31.8906 15.2941 31.8906 15.7189 31.8906 15.8039C32.3158 19.4575 35.7174 22.4313 39.119 22.4313H38.9489H39.204C39.289 22.4313 39.7142 22.4313 39.7993 22.4313H51.6197C52.8953 22.4313 54.0008 21.3268 54.0008 20.0523C53.9158 18.7778 52.8953 17.6732 51.6197 17.6732Z" fill="#D72685"/>
</svg>
