<svg width="50" height="51" viewBox="0 0 50 51" fill="none" xmlns="http://www.w3.org/2000/svg">
<g clip-path="url(#clip0_5521_24968)">
<path d="M0 8.98535C0 4.56708 3.58172 0.985352 8 0.985352H42C46.4183 0.985352 50 4.56707 50 8.98535V42.9854C50 47.4036 46.4183 50.9854 42 50.9854H8C3.58172 50.9854 0 47.4036 0 42.9854V8.98535Z" fill="#E91E63"/>
<g opacity="0.2">
<path d="M35.9791 43.8563L31.1666 44.9938C30.0875 45.2563 29.2416 46.073 29.0083 47.1522L27.9875 51.4397C27.4333 53.773 24.4583 54.5022 22.9125 52.6647L14.1916 42.6313C13.4916 41.8147 13.8708 40.5313 14.9208 40.2688C20.0833 39.0147 24.7208 36.1272 28.1333 32.0147C28.6875 31.3438 29.6791 31.2563 30.2916 31.8688L36.7666 38.3438C38.9833 40.5605 38.1958 43.3313 35.9791 43.8563Z" fill="white"/>
<path d="M-18.125 43.8563L-13.3125 44.9938C-12.2333 45.2563 -11.3875 46.073 -11.1542 47.1522L-10.1333 51.4397C-9.57918 53.773 -6.60418 54.5022 -5.05835 52.6647L3.66249 42.6313C4.36249 41.8147 3.98332 40.5313 2.93332 40.2688C-2.22918 39.0147 -6.86668 36.1272 -10.2792 32.0147C-10.8333 31.3438 -11.825 31.2563 -12.4375 31.8688L-18.9125 38.3438C-21.1292 40.5605 -20.3417 43.3313 -18.125 43.8563Z" fill="white"/>
<path d="M8.99992 -4.18115C-2.28758 -4.18115 -11.4167 4.94801 -11.4167 16.2355C-11.4167 20.4647 -10.1626 24.3438 -8.00425 27.5813C-4.85425 32.248 0.133252 35.5438 5.93742 36.3897C6.92909 36.5647 7.94992 36.6522 8.99992 36.6522C10.0499 36.6522 11.0708 36.5647 12.0624 36.3897C17.8666 35.5438 22.8541 32.248 26.0041 27.5813C28.1624 24.3438 29.4166 20.4647 29.4166 16.2355C29.4166 4.94801 20.2874 -4.18115 8.99992 -4.18115ZM17.9249 15.5938L15.5041 18.0147C15.0958 18.423 14.8624 19.2105 15.0083 19.7938L15.7083 22.798C16.2624 25.1605 15.0083 26.0938 12.9083 24.8397L9.99159 23.1188C9.46659 22.798 8.59159 22.798 8.06659 23.1188L5.14992 24.8397C3.04992 26.0647 1.79575 25.1605 2.34992 22.798L3.04992 19.7938C3.16659 19.2397 2.96242 18.423 2.55409 18.0147L0.0749177 15.5938C-1.35425 14.1647 -0.887581 12.7355 1.09575 12.4147L4.21658 11.8897C4.74158 11.8022 5.35409 11.3355 5.58742 10.8688L7.30825 7.42718C8.24159 5.56051 9.75825 5.56051 10.6916 7.42718L12.4124 10.8688C12.6458 11.3355 13.2583 11.8022 13.8124 11.8897L16.9333 12.4147C18.8874 12.7355 19.3541 14.1647 17.9249 15.5938Z" fill="white"/>
</g>
</g>
<defs>
<clipPath id="clip0_5521_24968">
<path d="M0 8.98535C0 4.56708 3.58172 0.985352 8 0.985352H42C46.4183 0.985352 50 4.56707 50 8.98535V42.9854C50 47.4036 46.4183 50.9854 42 50.9854H8C3.58172 50.9854 0 47.4036 0 42.9854V8.98535Z" fill="white"/>
</clipPath>
</defs>
</svg>
