<svg width="22" height="22" viewBox="0 0 22 22" fill="none" xmlns="http://www.w3.org/2000/svg">
<path d="M8.07566 1.83331L4.75732 5.16081" stroke="#FF9800" stroke-width="1.5" stroke-miterlimit="10" stroke-linecap="round" stroke-linejoin="round"/>
<path d="M13.9243 1.83331L17.2426 5.16081" stroke="#FF9800" stroke-width="1.5" stroke-miterlimit="10" stroke-linecap="round" stroke-linejoin="round"/>
<path d="M1.8335 7.19582C1.8335 5.49999 2.741 5.36249 3.8685 5.36249H18.1318C19.2593 5.36249 20.1668 5.49999 20.1668 7.19582C20.1668 9.16665 19.2593 9.02916 18.1318 9.02916H3.8685C2.741 9.02916 1.8335 9.16665 1.8335 7.19582Z" stroke="#FF9800" stroke-width="1.5"/>
<path d="M8.94678 12.8333V16.0875" stroke="#FF9800" stroke-width="1.5" stroke-linecap="round"/>
<path d="M13.1636 12.8333V16.0875" stroke="#FF9800" stroke-width="1.5" stroke-linecap="round"/>
<path d="M3.2085 9.16669L4.501 17.0867C4.79433 18.865 5.50016 20.1667 8.12183 20.1667H13.6493C16.5002 20.1667 16.9218 18.92 17.2518 17.1967L18.7918 9.16669" stroke="#FF9800" stroke-width="1.5" stroke-linecap="round"/>
</svg>
