<svg width="21" height="21" viewBox="0 0 21 21" fill="none" xmlns="http://www.w3.org/2000/svg">
    <path d="M9.70841 12.5441L8.16675 14.0858C7.84175 14.4108 7.32508 14.4108 6.99175 14.0941C6.90008 14.0024 6.80841 13.9191 6.71675 13.8274C5.85841 12.9608 5.08341 12.0524 4.39175 11.1024C3.70841 10.1524 3.15841 9.20244 2.75841 8.26078C2.36675 7.31077 2.16675 6.40244 2.16675 5.53577C2.16675 4.96911 2.26675 4.42744 2.46675 3.92744C2.66675 3.41911 2.98341 2.95244 3.42508 2.53577C3.95841 2.01077 4.54175 1.75244 5.15841 1.75244C5.39175 1.75244 5.62508 1.80244 5.83341 1.90244C6.05008 2.00244 6.24175 2.15244 6.39175 2.36911L8.32508 5.09411C8.47508 5.30244 8.58341 5.49411 8.65841 5.67744C8.73341 5.85244 8.77508 6.02744 8.77508 6.18577C8.77508 6.38577 8.71675 6.58577 8.60008 6.77744C8.49175 6.96911 8.33341 7.16911 8.13341 7.36911L7.50008 8.02744C7.40841 8.11911 7.36675 8.22744 7.36675 8.36077C7.36675 8.42744 7.37508 8.48577 7.39175 8.55244C7.41675 8.61911 7.44175 8.66911 7.45842 8.71911C7.60842 8.99411 7.86675 9.35244 8.23341 9.78578C8.60841 10.2191 9.00841 10.6608 9.44175 11.1024C9.52508 11.1858 9.61675 11.2691 9.70008 11.3524C10.0334 11.6774 10.0417 12.2108 9.70841 12.5441Z" fill="#3C3C3C"/>
    <path d="M18.8083 15.3611C18.8083 15.5945 18.7667 15.8361 18.6833 16.0695C18.6583 16.1361 18.6333 16.2028 18.6 16.2695C18.4583 16.5695 18.275 16.8528 18.0333 17.1195C17.625 17.5695 17.175 17.8945 16.6667 18.1028C16.6583 18.1028 16.65 18.1111 16.6417 18.1111C16.15 18.3111 15.6167 18.4195 15.0417 18.4195C14.1917 18.4195 13.2833 18.2195 12.325 17.8111C11.3667 17.4028 10.4083 16.8528 9.45833 16.1611C9.13333 15.9195 8.80833 15.6778 8.5 15.4195L11.225 12.6945C11.4583 12.8695 11.6667 13.0028 11.8417 13.0945C11.8833 13.1111 11.9333 13.1361 11.9917 13.1611C12.0583 13.1861 12.125 13.1945 12.2 13.1945C12.3417 13.1945 12.45 13.1445 12.5417 13.0528L13.175 12.4278C13.3833 12.2195 13.5833 12.0611 13.775 11.9611C13.9667 11.8445 14.1583 11.7861 14.3667 11.7861C14.525 11.7861 14.6917 11.8195 14.875 11.8945C15.0583 11.9695 15.25 12.0778 15.4583 12.2195L18.2167 14.1778C18.4333 14.3278 18.5833 14.5028 18.675 14.7111C18.7583 14.9195 18.8083 15.1278 18.8083 15.3611Z" fill="#3C3C3C"/>
</svg>
