<svg width="22" height="22" viewBox="0 0 22 22" fill="none" xmlns="http://www.w3.org/2000/svg">
<path d="M20.1667 13.75C20.1667 17.2975 17.2975 20.1667 13.75 20.1667L14.7125 18.5625" stroke="#64B5F6" stroke-width="1.5" stroke-linecap="round" stroke-linejoin="round"/>
<path d="M1.8335 8.24998C1.8335 4.70248 4.70266 1.83331 8.25016 1.83331L7.28766 3.43748" stroke="#64B5F6" stroke-width="1.5" stroke-linecap="round" stroke-linejoin="round"/>
<path d="M12.5581 4.07916L16.2064 6.18748L19.8181 4.08834" stroke="#64B5F6" stroke-width="1.5" stroke-linecap="round" stroke-linejoin="round"/>
<path d="M16.2065 9.9183V6.17828" stroke="#64B5F6" stroke-width="1.5" stroke-linecap="round" stroke-linejoin="round"/>
<path d="M15.3448 2.02581L13.1448 3.24494C12.6498 3.51994 12.2373 4.2166 12.2373 4.78493V7.1133C12.2373 7.68164 12.6406 8.3783 13.1448 8.6533L15.3448 9.87248C15.8123 10.1383 16.5823 10.1383 17.059 9.87248L19.259 8.6533C19.754 8.3783 20.1665 7.68164 20.1665 7.1133V4.78493C20.1665 4.2166 19.7631 3.51994 19.259 3.24494L17.059 2.02581C16.5915 1.76915 15.8215 1.76915 15.3448 2.02581Z" stroke="#64B5F6" stroke-width="1.5" stroke-linecap="round" stroke-linejoin="round"/>
<path d="M2.1543 14.1625L5.79346 16.2709L9.4143 14.1717" stroke="#64B5F6" stroke-width="1.5" stroke-linecap="round" stroke-linejoin="round"/>
<path d="M5.79346 20.0017V16.2617" stroke="#64B5F6" stroke-width="1.5" stroke-linecap="round" stroke-linejoin="round"/>
<path d="M4.941 12.1092L2.741 13.3283C2.246 13.6033 1.8335 14.3 1.8335 14.8683V17.1967C1.8335 17.765 2.23683 18.4617 2.741 18.7367L4.941 19.9559C5.4085 20.2217 6.17849 20.2217 6.65516 19.9559L8.85517 18.7367C9.35017 18.4617 9.76266 17.765 9.76266 17.1967V14.8683C9.76266 14.3 9.35933 13.6033 8.85517 13.3283L6.65516 12.1092C6.17849 11.8525 5.4085 11.8525 4.941 12.1092Z" stroke="#64B5F6" stroke-width="1.5" stroke-linecap="round" stroke-linejoin="round"/>
</svg>
