<svg width="22" height="22" viewBox="0 0 22 22" fill="none" xmlns="http://www.w3.org/2000/svg">
<rect width="22" height="22" fill="#282828"/>
<g clip-path="url(#clip0_190_3298)">
<rect width="360" height="874" transform="translate(-210 -248)" fill="#FAFAFA"/>
<g clip-path="url(#clip1_190_3298)">
<path d="M-61.5 4C-61.5 -4.56042 -54.5604 -11.5 -46 -11.5H18C26.5604 -11.5 33.5 -4.56041 33.5 4V66C33.5 74.5604 26.5604 81.5 18 81.5H-46C-54.5604 81.5 -61.5 74.5604 -61.5 66V4Z" fill="white"/>
<path d="M-61.5 4C-61.5 -4.56042 -54.5604 -11.5 -46 -11.5H18C26.5604 -11.5 33.5 -4.56041 33.5 4V66C33.5 74.5604 26.5604 81.5 18 81.5H-46C-54.5604 81.5 -61.5 74.5604 -61.5 66V4Z" stroke="#F3F3F3"/>
<path d="M10.9999 12.8333H11.9166C12.9249 12.8333 13.7499 12.0083 13.7499 11V1.83331H5.49994C4.12494 1.83331 2.92411 2.59414 2.30078 3.71247" stroke="#F44336" stroke-width="1.5" stroke-linecap="round" stroke-linejoin="round"/>
<path d="M1.8335 15.5833C1.8335 17.105 3.06183 18.3333 4.5835 18.3333H5.50016C5.50016 17.325 6.32516 16.5 7.3335 16.5C8.34183 16.5 9.16683 17.325 9.16683 18.3333H12.8335C12.8335 17.325 13.6585 16.5 14.6668 16.5C15.6752 16.5 16.5002 17.325 16.5002 18.3333H17.4168C18.9385 18.3333 20.1668 17.105 20.1668 15.5833V12.8333H17.4168C16.9127 12.8333 16.5002 12.4208 16.5002 11.9166V9.16665C16.5002 8.66248 16.9127 8.24998 17.4168 8.24998H18.5993L17.0318 5.50916C16.7018 4.94082 16.0969 4.58331 15.4369 4.58331H13.7502V11C13.7502 12.0083 12.9252 12.8333 11.9168 12.8333H11.0002" stroke="#F44336" stroke-width="1.5" stroke-linecap="round" stroke-linejoin="round"/>
<path d="M7.33333 20.1667C8.34586 20.1667 9.16667 19.3459 9.16667 18.3333C9.16667 17.3208 8.34586 16.5 7.33333 16.5C6.32081 16.5 5.5 17.3208 5.5 18.3333C5.5 19.3459 6.32081 20.1667 7.33333 20.1667Z" stroke="#F44336" stroke-width="1.5" stroke-linecap="round" stroke-linejoin="round"/>
<path d="M14.6668 20.1667C15.6794 20.1667 16.5002 19.3459 16.5002 18.3333C16.5002 17.3208 15.6794 16.5 14.6668 16.5C13.6543 16.5 12.8335 17.3208 12.8335 18.3333C12.8335 19.3459 13.6543 20.1667 14.6668 20.1667Z" stroke="#F44336" stroke-width="1.5" stroke-linecap="round" stroke-linejoin="round"/>
<path d="M20.1667 11V12.8333H17.4167C16.9125 12.8333 16.5 12.4208 16.5 11.9167V9.16667C16.5 8.6625 16.9125 8.25 17.4167 8.25H18.5991L20.1667 11Z" stroke="#F44336" stroke-width="1.5" stroke-linecap="round" stroke-linejoin="round"/>
<path d="M1.8335 7.33331H7.3335" stroke="#F44336" stroke-width="1.5" stroke-linecap="round" stroke-linejoin="round"/>
<path d="M1.8335 10.0833H5.50016" stroke="#F44336" stroke-width="1.5" stroke-linecap="round" stroke-linejoin="round"/>
<path d="M1.8335 12.8333H3.66683" stroke="#F44336" stroke-width="1.5" stroke-linecap="round" stroke-linejoin="round"/>
</g>
</g>
<defs>
<clipPath id="clip0_190_3298">
<rect width="360" height="874" fill="white" transform="translate(-210 -248)"/>
</clipPath>
<clipPath id="clip1_190_3298">
<path d="M-210 2C-210 -6.83656 -202.837 -14 -194 -14H134C142.837 -14 150 -6.83656 150 2V68C150 76.8366 142.837 84 134 84H-194C-202.837 84 -210 76.8366 -210 68V2Z" fill="white"/>
</clipPath>
</defs>
</svg>
