<svg width="101" height="21" viewBox="0 0 101 21" fill="none" xmlns="http://www.w3.org/2000/svg">
<path d="M52.3758 16.2338V5.01817C52.3758 4.58863 52.3281 4.11137 51.8987 3.96819C51.6124 3.92046 51.326 3.96819 51.1829 4.15909C50.992 4.34999 50.8966 4.63635 50.8489 4.87498C49.2742 9.59986 47.9858 14.3725 46.5066 19.0973C46.3634 19.5746 46.0771 20.1473 45.5999 20.195C45.2659 20.2428 44.8842 20.0519 44.6933 19.7655C44.5024 19.4792 44.3593 19.1451 44.2638 18.8587C42.8323 14.3725 41.3531 9.79077 39.8261 5.2568C39.6352 4.68409 39.3489 4.01592 38.7763 4.01592C38.7286 9.21806 38.6332 14.3247 38.5855 19.5269C38.5855 19.6701 38.5855 19.861 38.4423 19.9564C38.3946 20.0041 38.2514 20.0041 38.1083 20.0041C37.822 20.0041 37.5357 20.0041 37.2017 19.9564C37.0108 19.9564 36.7722 19.9564 36.7245 19.7655C36.6768 19.6223 36.6768 19.5746 36.6768 19.4314V4.54091C36.6768 3.92047 36.6768 3.30003 36.8676 2.67959C37.0108 2.25006 37.2971 1.86824 37.6311 1.58189C38.0606 1.29553 38.4423 1.24781 38.8718 1.15236C39.8261 1.00918 40.8759 1.00918 41.7348 1.62962C42.4506 2.20233 42.7846 3.01367 43.0709 3.82502C44.0253 6.44995 44.9319 9.17032 45.934 11.7953C45.9817 12.0816 46.2203 12.368 46.5066 12.368C46.6974 12.3202 46.7929 12.0816 46.8406 11.8907C47.6041 9.26578 48.3676 6.64085 49.131 3.96819C49.4173 3.06139 49.7036 2.1546 50.3717 1.53416C51.1829 0.818268 52.3758 0.818277 53.4256 1.20008C54.1414 1.39099 54.8571 1.7728 55.2866 2.39324C56.0501 3.30003 56.0501 4.58864 56.0501 5.78179V19.7655C56.0501 19.8132 56.0501 19.9087 56.0024 19.9564C55.9547 20.0996 55.8115 20.0996 55.6683 20.0996H52.7576C52.6144 20.0996 52.5667 20.0996 52.4236 20.0519V19.5746C52.4713 18.4769 52.4713 17.3792 52.4713 16.2338H52.3758Z" fill="#1F74C9"/>
<path d="M15.6346 10.5548C15.6346 9.83889 15.6823 9.17071 15.8255 8.45482C16.5413 5.35263 18.8794 2.63225 21.9334 1.67773C23.8898 1.05729 25.9416 1.05729 27.8981 1.67773C29.8545 2.25044 31.7154 3.34814 33.0038 4.9231C35.1034 7.40485 35.7237 11.0798 34.5785 14.1342C33.481 17.1887 30.618 19.5273 27.4209 20.1477C23.5558 20.9113 19.3089 19.05 17.1616 15.7092C16.1118 14.1342 15.5869 12.3206 15.5869 10.507L15.6346 10.5548ZM30.8088 10.7457C30.8088 9.21845 30.6657 7.83439 30.1885 6.45034C29.8545 5.40036 29.3773 4.35039 28.5184 3.53904C27.1346 2.10726 24.5578 1.86863 23.0309 2.82315C21.8379 3.58677 21.2176 4.63674 20.6927 5.87762C19.7383 7.97756 19.6429 10.1252 19.9769 12.3206C20.2632 14.1819 20.8836 15.9478 22.0765 17.4273C23.2694 18.9546 25.035 19.3841 26.7051 18.8114C28.0412 18.3818 28.8524 17.475 29.4727 16.2342C30.4271 14.5638 30.8565 12.607 30.8088 10.6979V10.7457Z" fill="#1F74C9"/>
<path d="M15.5862 20.0521C14.2501 20.0521 13.0094 20.0044 11.7211 20.0044C10.4327 20.0044 11.3871 20.0044 11.2439 19.9567C11.1007 19.909 10.9576 19.6703 10.9099 19.5271C9.38292 16.6159 7.85596 13.7523 6.329 10.841C7.28335 10.7933 8.33313 10.6501 9.09661 10.0774C10.1941 9.36151 10.6713 7.97745 10.6713 6.73657C10.6713 5.4957 10.5281 5.30478 10.0987 4.63662C9.52607 3.82528 8.57173 3.25257 7.61738 3.06166C6.66302 2.87076 5.61323 2.91848 4.56344 3.01394C4.42029 3.01394 4.37258 3.01394 4.22943 3.06166C4.03856 3.20484 4.03856 3.39575 4.03856 3.63438C4.03856 8.88425 3.99084 14.1818 3.99084 19.4317C3.99084 19.5271 3.99084 19.7181 3.94312 19.7658C3.79997 19.909 3.65682 19.9089 3.51366 19.9089H0.555169C0.412017 19.9089 0.221147 19.909 0.0779939 19.7658C0.0302763 19.7181 0.0302734 19.5749 0.0302734 19.4317C0.0302734 13.7523 0.0779939 8.12063 0.0779939 2.44123C0.0779939 1.77306 0.268867 1.67761 0.841478 1.67761H2.84562C4.18171 1.67761 5.47008 1.67761 6.80617 1.62988C7.90368 1.62988 9.00118 1.62988 10.1464 1.77305C11.2439 1.91623 12.2937 2.34577 13.2003 3.01394C14.107 3.77755 14.7273 4.87526 14.775 5.97296C14.8227 7.07065 14.4887 8.4547 13.5821 9.21832C12.8186 9.93421 11.8642 10.2683 10.9576 10.6024C10.8145 10.6501 10.6713 10.7456 10.6713 10.8887C10.6713 11.0319 10.6713 11.0319 10.719 11.1751C12.2937 13.8955 13.9161 16.6636 15.4908 19.3362C15.6339 19.5271 15.6816 19.7658 15.6339 20.0521H15.5862Z" fill="#1F74C9"/>
<path d="M81.198 13.4659C81.6275 9.60007 81.198 5.63881 81.198 1.773C81.198 -2.09281 81.198 1.58211 81.2458 1.48665C81.2935 1.3912 81.4366 1.34347 81.5798 1.43893H82.6296C82.7727 1.43893 82.8204 1.43893 82.9159 1.48665C83.0113 1.53438 83.059 1.67755 83.059 1.82073V18.9544C83.059 19.4316 83.059 20.0521 82.6296 20.3862C82.2001 20.8157 81.5321 20.7202 81.0549 20.4339C80.5777 20.1475 80.2437 19.6703 79.8619 19.193C77.2375 15.3749 74.6607 11.5568 72.0363 7.73875C71.3205 6.78423 70.7002 5.78199 69.8413 4.97065C69.6981 4.92292 69.6504 4.77975 69.5072 4.77975C69.1732 4.77975 69.0301 5.20929 69.0301 5.54337C68.8869 10.4114 68.9823 15.3272 69.0301 20.243H67.7894C67.6462 20.243 67.5031 20.243 67.3599 20.1953C67.2168 20.0521 67.2168 19.9089 67.2168 19.7657V4.73202C67.2168 4.15931 67.2168 3.53887 67.3599 3.01388C67.9326 1.20029 70.4616 1.05712 71.9408 1.96391C72.752 2.44118 73.3724 3.30024 73.945 4.11159C75.9014 6.83197 77.8101 9.60007 79.7665 12.2727C80.2437 12.75 80.6731 13.2272 81.198 13.4659Z" fill="#1F74C9"/>
<path d="M101 20.4339H97.3258C96.8963 20.4339 96.7531 20.2907 96.61 19.8612C96.1805 18.2862 95.7034 16.6158 95.2262 14.9931C95.1785 14.659 94.8922 14.4204 94.5104 14.4204H88.0208C87.4482 14.4204 87.2573 14.6113 87.1142 15.1363C86.6847 16.5203 86.3507 17.9999 85.9213 19.3839C85.6349 20.2907 85.4918 20.4339 84.5374 20.1953C84.3943 20.1953 84.2034 20.1475 83.9648 20.0521C84.1557 19.4316 84.3943 18.8112 84.5374 18.1908C85.3486 15.2795 86.2076 12.3682 87.0188 9.4569C87.6391 7.35695 88.0685 5.20928 88.832 3.20478C89.4524 1.48665 90.5021 0.866211 92.22 0.866211C93.9378 0.866211 93.7469 1.05712 94.3673 1.5821C94.6536 1.77301 94.9399 2.20254 95.083 2.53662C95.5125 3.63432 95.9897 4.6843 96.3237 5.782C96.944 7.59559 97.5166 9.40918 98.0415 11.2705C98.5187 12.7977 98.9959 14.3727 99.473 15.8999C99.9025 17.2362 100.284 18.5249 100.714 19.8612C100.857 20.0521 100.857 20.1953 100.905 20.4339H101ZM93.7946 12.7977C94.415 12.8454 94.5581 12.75 94.3673 12.1773C94.1764 11.4137 93.9378 10.6501 93.7469 9.98189C93.1266 8.02512 92.554 6.11607 91.8859 4.1593C91.8382 3.9684 91.4565 3.72977 91.2656 3.68204C91.1225 3.68204 90.8362 3.87295 90.693 4.01613C90.5499 4.20704 90.5021 4.49339 90.4067 4.73202C89.691 7.21378 89.0229 9.74326 88.3071 12.225C88.164 12.7977 88.164 12.8454 88.7843 12.8454C90.4544 12.8454 92.1245 12.8454 93.7946 12.8454V12.7977Z" fill="#1F74C9"/>
<path d="M63.5911 5.49566C63.5911 10.2683 63.5912 15.0409 63.6389 19.7657C63.6389 19.9089 63.6389 19.9566 63.5911 20.0521C63.5434 20.1476 63.448 20.0998 63.4003 20.0998H60.8235C60.5372 20.0998 60.3464 20.0998 60.1078 20.0521C59.5352 19.8612 59.5352 19.4317 59.5352 18.9544C59.5352 18.4771 59.5829 17.7135 59.5829 16.9976C59.6306 15.7568 59.6306 14.5159 59.6306 13.275C59.6306 10.6978 59.6306 8.21604 59.5829 5.63883C59.5352 4.3025 59.5352 3.06162 59.5829 1.77302C59.5829 1.58212 59.6306 1.34349 59.7737 1.29576C59.8215 1.24804 59.9646 1.24805 60.1078 1.24805C61.1576 1.24805 62.2551 1.29576 63.3048 1.29576C64.3546 1.29576 63.4957 1.29576 63.5911 1.34349C63.6866 1.39122 63.6389 1.48667 63.6389 1.53439C63.4957 2.96617 63.4957 4.25478 63.4957 5.49566H63.5911Z" fill="#1F74C9"/>
</svg>
